--------------------------------------------------------------------------------------
             Kes 1969 720p BRRip XVID AC3 Multisubs nekanilla
______________________________________________________________________________________

---------------------------------------INFO-------------------------------------------

Movie name: Kes
Country and year of production: UK / 1969
Speech language / subtitle: English / Greek, English, Danish, Spanish, French, German SRT
Genre: Drama 
Movie Length: 110 minutes
Writer: Barry Hines, Ken Loach, Tony Garnett
Directed by: Ken Loach 

Won 2 BAFTA Film Awards
______________________________________________________________________________________

---------------------------------------PLOT-------------------------------------------

Bullied at school and ignored and abused at home by his indifferent mother and older brother, Billy Casper (David Bradley), a 15-year-old working-class Yorkshire boy, tames and trains his pet kestrel falcon whom he names Kes. Helped and encouraged by his English teacher Mr. Farthing (Colin Welland) and his fellow students, Billy finally finds a positive purpose to his unhappy existence, until tragedy strikes. Written by alfiehitchie

______________________________________________________________________________________

---------------------------------------CAST-------------------------------------------

David Bradley as Billy Casper
Freddie Fletcher as Jud
Lynne Perrie as Mrs Casper
Colin Welland as Mr Farthing
Brian Glover as Mr Sugden
Bob Bowes as Mr Gryce
Bernard Atha as Youth employment officer
Joey Kaye as Pub comedian
Bill Dean as Fish and Chip Shop Man
Geoffrey Banks as Mathematics teacher
Duggie Brown as Milkman
Harry Markham as Newsagent
______________________________________________________________________________________

------------------------------------MEDIA INFO----------------------------------------
     
                                 Includes sample
General
Complete name                  :Kes 1969 720p BRRip XVID AC3.avi
Format                         : AVI
Format/Info                    : Audio Video Interleave
Format profile                 : OpenDML
Format settings                : rec
File size                      : 3.54 GiB
Duration                       : 1h 51mn
Overall bit rate               : 4 562 Kbps
Writing application            : AVI-Mux GUI 1.17.8.3, Feb 16 201019:42:50

Video
ID                             : 0
Format                         : MPEG-4 Visual
Format profile                 : Advanced Simple@L5
Format settings, BVOP          : 2
Format settings, QPel          : No
Format settings, GMC           : No warppoints
Format settings, Matrix        : Default (H.263)
Codec ID                       : XVID
Codec ID/Hint                  : XviD
Duration                       : 1h 51mn
Bit rate                       : 4 109 Kbps
Width                          : 1 280 pixels
Height                         : 768 pixels
Display aspect ratio           : 1.667
Frame rate                     : 23.976 fps
Color space                    : YUV
Chroma subsampling             : 4:2:0
Bit depth                      : 8 bits
Scan type                      : Progressive
Compression mode               : Lossy
Bits/(Pixel*Frame)             : 0.174
Stream size                    : 3.19 GiB (90%)
Writing library                : XviD 1.2.1 (UTC 2008-12-04)

Audio
ID                             : 1
Format                         : AC-3
Format/Info                    : Audio Coding 3
Mode extension                 : CM (complete main)
Codec ID                       : 2000
Duration                       : 1h 51mn
Bit rate mode                  : Constant
Bit rate                       : 448 Kbps
Channel(s)                     : 1 channel
Channel positions              : Front: C
Sampling rate                  : 48.0 KHz
Bit depth                      : 16 bits
Compression mode               : Lossy
Stream size                    : 356 MiB (10%)
Alignment                      : Aligned on interleaves
Interleave, duration           : 64 ms (1.53 video frames)
Interleave, preload duration   : 192 ms
Title                          : Kes audio
______________________________________________________________________________________

______________________________________________________________________________________

-----------------------------------SCREENSHOTS----------------------------------------
                          http://i.imgur.com/ht65r0r.jpg
                          http://i.imgur.com/UQCE7IW.png
                          http://i.imgur.com/VTR22wD.png
                          http://i.imgur.com/3vcgqg4.jpg
______________________________________________________________________________________

                            Source: Kes.1969.1080p.BluRay.FLAC1.0.x264-DON

                            Rip   : By   nekanilla